<svg xmlns="http://www.w3.org/2000/svg" width="28.143" height="24.625" viewBox="0 0 28.143 24.625">
  <path id="Icon_map-canoe" data-name="Icon map-canoe" d="M10.357,8.089a2.6,2.6,0,1,0-2.61-2.607,2.607,2.607,0,0,0,2.61,2.607ZM.72,22.326a4.325,4.325,0,0,0,1.728-.377,4.219,4.219,0,0,1,3.571,0,4.218,4.218,0,0,0,3.47,0,4.219,4.219,0,0,1,3.571,0,4.2,4.2,0,0,0,3.463,0,4.219,4.219,0,0,1,3.571,0,4.219,4.219,0,0,0,3.471,0,4.24,4.24,0,0,1,3.329-.107,4.736,4.736,0,0,0-3.5-7.949l-.533.057A3.278,3.278,0,0,1,19.9,16.417l-10.858,0-.908-.533,2.189-3.664,2.4,1.381a1.451,1.451,0,0,0,2.182-.373l2.4-3.908A1.309,1.309,0,1,0,15.1,7.962L13.416,10.7l-4-2.207A2.633,2.633,0,0,0,5.475,9.506l-3.14,5.366c-.534,1.115-.061,1.594-.061,1.594l-1.554,0ZM28.863,27.5a4.2,4.2,0,0,1-1.728-.373,4.284,4.284,0,0,0-1.789-.4,4.239,4.239,0,0,0-1.781.4,4.225,4.225,0,0,1-3.471,0,4.225,4.225,0,0,0-3.571,0,4.207,4.207,0,0,1-3.463,0,4.223,4.223,0,0,0-3.57,0,4.224,4.224,0,0,1-3.47,0,4.217,4.217,0,0,0-3.567,0A4.234,4.234,0,0,1,.72,27.5v-2.59a4.236,4.236,0,0,0,1.732-.376,4.217,4.217,0,0,1,3.567,0,4.188,4.188,0,0,0,3.47,0,4.223,4.223,0,0,1,3.57,0,4.171,4.171,0,0,0,3.463,0,4.225,4.225,0,0,1,3.571,0,4.189,4.189,0,0,0,3.471,0,4.248,4.248,0,0,1,1.781-.4,4.293,4.293,0,0,1,1.789.4,4.217,4.217,0,0,0,1.728.376Z" transform="translate(-0.72 -2.88)" fill="#e9edf2"/>
</svg>
