<svg xmlns="http://www.w3.org/2000/svg" width="29.882" height="29.878" viewBox="0 0 29.882 29.878">
  <path id="Icon_awesome-skiing" data-name="Icon awesome-skiing" d="M25.215,5.6a2.8,2.8,0,1,0-2.8-2.8A2.8,2.8,0,0,0,25.215,5.6Zm4.261,20.784a1.4,1.4,0,0,0-1.979,0,2.375,2.375,0,0,1-2.632.508l-7.926-4.1,2.872-4.307a2.8,2.8,0,0,0-.35-3.537L17.1,12.59l-6.245-3.1a3.724,3.724,0,0,0,1.033,3.175l4.383,4.389L13.594,21.07,2.043,15.1A1.4,1.4,0,1,0,.759,17.586L23.633,29.405a5.14,5.14,0,0,0,2.165.473,5.2,5.2,0,0,0,3.677-1.518,1.4,1.4,0,0,0,0-1.973ZM7,5.346,6.333,6.66a2.285,2.285,0,0,0,2.5-.28l2.755,1.366c-.006.006-.006.012-.012.018l6.683,3.315,1.891-.759.374,1.115a2.778,2.778,0,0,0,1.4,1.617l3.391,1.693A1.866,1.866,0,1,0,26.983,11.4L23.942,9.881l-1-2.988a3.75,3.75,0,0,0-4.932-2.288L13.273,6.5,9.625,4.693A2.263,2.263,0,0,0,8.4,2.615L7.757,3.881H7.745L5.738,3.473a.3.3,0,0,0-.292.1A.305.305,0,0,0,5.475,4L7,5.346Z" transform="translate(0)" fill="#e9edf2"/>
</svg>
