<svg xmlns="http://www.w3.org/2000/svg" width="25.439" height="25.439" viewBox="0 0 25.439 25.439"><g transform="translate(1.5 1.5)"><path d="M8.61,3h11.22a5.61,5.61,0,0,1,5.61,5.61v11.22a5.61,5.61,0,0,1-5.61,5.61H8.61A5.61,5.61,0,0,1,3,19.829V8.61A5.61,5.61,0,0,1,8.61,3Z" transform="translate(-3 -3)" fill="none" stroke="#e9edf2" stroke-linecap="round" stroke-linejoin="round" stroke-width="3"/><path d="M20.992,15.765a4.488,4.488,0,1,1-3.781-3.781,4.488,4.488,0,0,1,3.781,3.781Z" transform="translate(-5.285 -5.252)" fill="none" stroke="#e9edf2" stroke-linecap="round" stroke-linejoin="round" stroke-width="3"/><path d="M26.25,9.75h0" transform="translate(-8.86 -4.701)" fill="none" stroke="#e9edf2" stroke-linecap="round" stroke-linejoin="round" stroke-width="3"/></g></svg>