<svg xmlns="http://www.w3.org/2000/svg" width="25.993" height="26" viewBox="0 0 25.993 26">
  <path id="Icon_awesome-snowboarding" data-name="Icon awesome-snowboarding" d="M21.94,4.875A2.437,2.437,0,1,0,19.5,2.437,2.438,2.438,0,0,0,21.94,4.875Zm1.463,7.8a1.625,1.625,0,1,0,1.95-2.6L19.7,5.835A8.138,8.138,0,0,0,17.39,4.626L14.156,3.55,12.83.9a1.624,1.624,0,1,0-2.9,1.452L11.4,5.307A2.435,2.435,0,0,0,12.81,6.525l.833.279L11.551,7.851a3.231,3.231,0,0,0-1.8,2.9v2.7L5.99,14.706a1.623,1.623,0,0,0-1.026,2.057,1.548,1.548,0,0,0,.442.655L3.441,16.7a1.944,1.944,0,0,1-1.107-1.016A1.219,1.219,0,1,0,.125,16.717a4.36,4.36,0,0,0,2.483,2.275l18.525,6.739A4.437,4.437,0,0,0,22.641,26a4.311,4.311,0,0,0,1.854-.416,1.219,1.219,0,1,0-1.031-2.209,1.941,1.941,0,0,1-1.5.066L17.355,21.76a1.611,1.611,0,0,0,.9-1.112l1.112-5.18a2.444,2.444,0,0,0-.919-2.458l-2.641-1.98,3.352-1.549,4.24,3.194ZM16.07,15.3l-1,4.672a1.578,1.578,0,0,0,.142,1.016L6.61,17.86a1.58,1.58,0,0,0,.406-.066l4.316-1.442A2.431,2.431,0,0,0,13,14.041V13Z" transform="translate(-0.01)" fill="#e9edf2"/>
</svg>
