<svg xmlns="http://www.w3.org/2000/svg" width="28.822" height="25.619" viewBox="0 0 28.822 25.619">
  <path id="Icon_awesome-skiing-nordic" data-name="Icon awesome-skiing-nordic" d="M16.813,4.8a2.4,2.4,0,1,0-2.4-2.4A2.4,2.4,0,0,0,16.813,4.8ZM27.621,20.816a1.2,1.2,0,0,0-1.2,1.2,1.2,1.2,0,0,1-1.2,1.2H21.741l1.276-8.927a1.6,1.6,0,0,0-.6-3.082h-2.2L18.914,8.546A4.809,4.809,0,0,0,15.822,6L12.259,4.939a4.791,4.791,0,0,0-4.043.856L6.23,7.316a1.6,1.6,0,0,0-.3,2.247c.035.045.085.065.12.105L3.348,23.218H1.2a1.2,1.2,0,0,0,0,2.4H25.219a3.607,3.607,0,0,0,3.6-3.6A1.2,1.2,0,0,0,27.621,20.816Zm-13.035,2.4H9.737l2.157-4.553-1.1-.65a4.8,4.8,0,0,1-1.476-1.391L6.19,23.218H4.979L7.6,10.138a1.62,1.62,0,0,0,.585-.28l1.987-1.521a1.549,1.549,0,0,1,1.266-.305l.736.22-1.876,4.373a3.211,3.211,0,0,0,1.316,4.018l4.253,2.512-1.276,4.063Zm5.534,0H17.939l1.181-3.778a2.414,2.414,0,0,0-1.081-2.722l-3.062-1.806,1.566-3.918,1.016,2.072a2.419,2.419,0,0,0,2.157,1.346h1.666L20.12,23.218Z" fill="#e9edf2"/>
</svg>
