<svg xmlns="http://www.w3.org/2000/svg" width="26.927" height="21.87" viewBox="0 0 26.927 21.87">
  <g id="Icon_awesome-twitter" data-name="Icon awesome-twitter" transform="translate(0 0)">
    <path id="Icon_awesome-twitter-2" data-name="Icon awesome-twitter" d="M24.159,8.831c.017.239.017.478.017.718a15.594,15.594,0,0,1-15.7,15.7A15.6,15.6,0,0,1,0,22.773a11.416,11.416,0,0,0,1.333.068,11.052,11.052,0,0,0,6.851-2.358,5.528,5.528,0,0,1-5.16-3.827,6.959,6.959,0,0,0,1.042.085,5.837,5.837,0,0,0,1.452-.188,5.519,5.519,0,0,1-4.425-5.416v-.068a5.558,5.558,0,0,0,2.494.7A5.527,5.527,0,0,1,1.879,4.389a15.687,15.687,0,0,0,11.379,5.775A6.23,6.23,0,0,1,13.122,8.9a5.524,5.524,0,0,1,9.551-3.776,10.865,10.865,0,0,0,3.5-1.333,5.5,5.5,0,0,1-2.426,3.041,11.063,11.063,0,0,0,3.178-.854,11.863,11.863,0,0,1-2.768,2.853Z" transform="translate(0 -3.381)" fill="#e9edf2"/>
  </g>
</svg>
