<svg 
    xmlns="http://www.w3.org/2000/svg" 
    width="28.602" 
    height="26.184" 
    viewBox="0 0 28.602 26.184">
        <path 
            d="M12.087,29.387a1.262,1.262,0,1,1-1.262-1.262,1.262,1.262,0,0,1,1.262,1.262Z" 
            transform="translate(-3.331 -4.465)" 
            fill="#3a4754"/>
        <path 
            d="M27.872,29.387a1.262,1.262,0,1,1-1.262-1.262,1.262,1.262,0,0,1,1.262,1.262Z" 
            transform="translate(-2.186 -4.465)" 
            fill="#3a4754"/>
        <path 
            d="M31.974,9.362a.408.408,0,0,0-.358-.3L9.215,6.817A.687.687,0,0,1,8.7,6.482,7.291,7.291,0,0,0,7.86,5.156c-.53-.67-1.527-.649-3.356-.663A1.015,1.015,0,0,0,3.382,5.5,1,1,0,0,0,4.455,6.5a8.824,8.824,0,0,1,1.788.135c.323.1.585.649.681,1.126a.027.027,0,0,0,.007.021c.014.086.138.727.138.734L9.82,23.606a5.656,5.656,0,0,0,1,2.545,2.712,2.712,0,0,0,2.263,1.155H29.353a.993.993,0,0,0,.99-.955.978.978,0,0,0-.963-1.041H13.066a.78.78,0,0,1-.571-.2,3.247,3.247,0,0,1-.791-1.854l-.3-1.69a.039.039,0,0,1,.028-.043l19.1-3.351a.411.411,0,0,0,.337-.371l1.1-8.256A.421.421,0,0,0,31.974,9.362Z" 
    transform="translate(-3.382 -4.493)" 
    fill="#3a4754"/>
</svg>