<svg xmlns="http://www.w3.org/2000/svg" width="33.045" height="37.762" viewBox="0 0 33.045 37.762">
  <path id="Icon_awesome-snowflake" data-name="Icon awesome-snowflake" d="M32.474,25.46l-2.493-1.438,1.918-.516a1.141,1.141,0,0,0,.8-1.394l-.3-1.1a1.141,1.141,0,0,0-1.394-.8l-5.222,1.4-4.713-2.729,4.706-2.722,5.222,1.4a1.141,1.141,0,0,0,1.394-.8l.3-1.1a1.141,1.141,0,0,0-.8-1.394l-1.918-.516,2.493-1.438a1.144,1.144,0,0,0,.42-1.556L31.744,8.777a1.144,1.144,0,0,0-1.556-.42L27.695,9.795l.516-1.918a1.141,1.141,0,0,0-.8-1.394l-1.1-.3a1.141,1.141,0,0,0-1.394.8l-1.4,5.222-4.632,2.67V9.168l3.961-3.961a1.184,1.184,0,0,0,0-1.667l-.833-.833a1.184,1.184,0,0,0-1.667,0L18.881,4.16V1.18A1.184,1.184,0,0,0,17.7,0h-2.36a1.184,1.184,0,0,0-1.18,1.18V4.16L12.708,2.707a1.184,1.184,0,0,0-1.667,0L10.2,3.54a1.171,1.171,0,0,0,0,1.667l3.961,3.961v5.716l-4.632-2.67-1.4-5.222a1.141,1.141,0,0,0-1.394-.8l-1.1.3a1.141,1.141,0,0,0-.8,1.394l.516,1.918L2.854,8.356a1.138,1.138,0,0,0-1.556.42L.155,10.746A1.138,1.138,0,0,0,.575,12.3L3.068,13.74l-1.918.516a1.144,1.144,0,0,0-.811,1.4l.3,1.1a1.141,1.141,0,0,0,1.394.8l5.222-1.4,4.706,2.722L7.25,21.6,2.028,20.2a1.141,1.141,0,0,0-1.394.8l-.3,1.1a1.141,1.141,0,0,0,.8,1.394l1.918.516L.568,25.46a1.144,1.144,0,0,0-.42,1.556l1.143,1.977a1.144,1.144,0,0,0,1.556.42L5.34,27.975l-.516,1.918a1.141,1.141,0,0,0,.8,1.394l1.1.3a1.141,1.141,0,0,0,1.394-.8l1.4-5.222,4.632-2.67V28.6l-3.961,3.961a1.171,1.171,0,0,0,0,1.667l.833.833a1.184,1.184,0,0,0,1.667,0l1.453-1.453v2.972a1.184,1.184,0,0,0,1.18,1.18h2.36a1.184,1.184,0,0,0,1.18-1.18V33.6l1.453,1.453a1.184,1.184,0,0,0,1.667,0l.833-.833a1.184,1.184,0,0,0,0-1.667l-3.938-3.961V22.879l4.632,2.67,1.4,5.222a1.141,1.141,0,0,0,1.394.8l1.1-.3a1.141,1.141,0,0,0,.8-1.394l-.516-1.918,2.493,1.438a1.138,1.138,0,0,0,1.556-.42l1.143-1.977a1.127,1.127,0,0,0-.413-1.549Z" transform="translate(0.002)" fill="#a1b2c3"/>
</svg>
