<svg xmlns="http://www.w3.org/2000/svg" width="22.439" height="19.946" viewBox="0 0 22.439 19.946">
  <path id="Icon_awesome-house-damage" data-name="Icon awesome-house-damage" d="M11.22,4.478,2.706,11.987a1.8,1.8,0,0,1-.213.131v7.2a.623.623,0,0,0,.623.623H19.323a.623.623,0,0,0,.623-.623v-7.2a1.817,1.817,0,0,1-.2-.125ZM22.232,9.2,19.946,7.186V1.87a.623.623,0,0,0-.623-.623H16.829a.623.623,0,0,0-.623.623V3.884L12.262.4a1.552,1.552,0,0,0-2.082,0L.207,9.2a.623.623,0,0,0-.047.88l.834.928a.623.623,0,0,0,.88.047l8.934-7.88a.624.624,0,0,1,.825,0l8.934,7.88a.624.624,0,0,0,.88-.047l.834-.928A.623.623,0,0,0,22.232,9.2Z" transform="translate(0)" fill="#e9edf2"/>
</svg>
