<svg xmlns="http://www.w3.org/2000/svg" width="20.923" height="22.329" viewBox="0 0 20.923 22.329">
  <path id="Path_57" data-name="Path 57" d="M17-9.228c1.2-.585,1.126.93-.112,1.641a10.453,10.453,0,0,1-4.839,1.205A10.055,10.055,0,0,1,6.951-7.723a8.768,8.768,0,0,1-3.57-3.88,12.334,12.334,0,0,1-1.233-5.46,12.1,12.1,0,0,1,1.233-5.424A9,9,0,0,1,6.905-26.35a10.635,10.635,0,0,1,5.524-1.36A10.275,10.275,0,0,1,17.57-26.5a8.641,8.641,0,0,1,3.314,3.287,9.162,9.162,0,0,1,1.187,4.62,7.342,7.342,0,0,1-.667,3.214A5.426,5.426,0,0,1,19.579-13.2a4.355,4.355,0,0,1-2.511.794,3.917,3.917,0,0,1-2.127-.6,2.634,2.634,0,0,1-1.16-1.972,6.207,6.207,0,0,1-1.625,1.735,3.193,3.193,0,0,1-1.844.639,3.281,3.281,0,0,1-1.826-.575,3.539,3.539,0,0,1-1.315-1.57,5.309,5.309,0,0,1-.438-2.164A6.391,6.391,0,0,1,7.5-19.9a4.772,4.772,0,0,1,2.018-2.118,8.44,8.44,0,0,1,3.753-.648h2.52v5.624a4.079,4.079,0,0,0,.493,2.4,1.548,1.548,0,0,0,1.26.612,2.478,2.478,0,0,0,2-1.169,5.221,5.221,0,0,0,.867-3.177,7.807,7.807,0,0,0-1.032-4.036,7.017,7.017,0,0,0-2.922-2.721,8.863,8.863,0,0,0-4.1-.968,8.937,8.937,0,0,0-4.383,1.1,7.14,7.14,0,0,0-3.022,3.2A10.31,10.31,0,0,0,3.92-17.21a11.658,11.658,0,0,0,.986,4.684A6.887,6.887,0,0,0,7.946-9.12a8.4,8.4,0,0,0,4.081,1.132A13.109,13.109,0,0,0,17-9.228ZM13.781-21.063h-.822a6.636,6.636,0,0,0-1.616.146,2.524,2.524,0,0,0-.959.493,3.545,3.545,0,0,0-1.1,1.5,5.558,5.558,0,0,0-.338,2.009,2.526,2.526,0,0,0,.493,1.771,1.461,1.461,0,0,0,1.059.511,2.434,2.434,0,0,0,1.379-.5,9.329,9.329,0,0,0,1.908-2.237Z" transform="translate(-1.648 28.21)" fill="#e9edf2" stroke="#3a4754" stroke-width="1"/>
</svg>
