<svg xmlns="http://www.w3.org/2000/svg" width="6.202" height="6.569" viewBox="0 0 6.202 6.569">
  <path id="Path_57" data-name="Path 57" d="M6.025-22.884c.313-.153.294.243-.029.429a2.729,2.729,0,0,1-1.264.315,2.625,2.625,0,0,1-1.33-.35A2.289,2.289,0,0,1,2.47-23.5a3.22,3.22,0,0,1-.322-1.426,3.16,3.16,0,0,1,.322-1.416,2.35,2.35,0,0,1,.92-1.008,2.777,2.777,0,0,1,1.442-.355,2.683,2.683,0,0,1,1.342.315,2.256,2.256,0,0,1,.865.858,2.392,2.392,0,0,1,.31,1.206,1.917,1.917,0,0,1-.174.839,1.417,1.417,0,0,1-.477.57,1.137,1.137,0,0,1-.656.207,1.023,1.023,0,0,1-.555-.157.688.688,0,0,1-.3-.515,1.621,1.621,0,0,1-.424.453.834.834,0,0,1-.482.167.857.857,0,0,1-.477-.15.924.924,0,0,1-.343-.41,1.386,1.386,0,0,1-.114-.565,1.669,1.669,0,0,1,.2-.78,1.246,1.246,0,0,1,.527-.553,2.2,2.2,0,0,1,.98-.169H5.71v1.469a1.065,1.065,0,0,0,.129.627.4.4,0,0,0,.329.16.647.647,0,0,0,.522-.305,1.363,1.363,0,0,0,.226-.83,2.038,2.038,0,0,0-.269-1.054,1.832,1.832,0,0,0-.763-.71,2.314,2.314,0,0,0-1.07-.253A2.333,2.333,0,0,0,3.669-27a1.864,1.864,0,0,0-.789.837,2.692,2.692,0,0,0-.269,1.2,3.044,3.044,0,0,0,.257,1.223,1.8,1.8,0,0,0,.794.889,2.193,2.193,0,0,0,1.066.3A3.423,3.423,0,0,0,6.025-22.884Zm-.84-3.09H4.971a1.732,1.732,0,0,0-.422.038.659.659,0,0,0-.25.129.925.925,0,0,0-.288.391,1.451,1.451,0,0,0-.088.524.66.66,0,0,0,.129.463.381.381,0,0,0,.277.134.636.636,0,0,0,.36-.131,2.436,2.436,0,0,0,.5-.584Z" transform="translate(-1.648 28.21)" fill="#e9edf2" stroke="#3a4754" stroke-width="1"/>
</svg>
