<svg xmlns="http://www.w3.org/2000/svg" xmlns:xlink="http://www.w3.org/1999/xlink" width="562" height="188" viewBox="0 0 562 188">
  <defs>
    <filter id="Path_1667" x="0" y="0" width="562" height="188" filterUnits="userSpaceOnUse">
      <feOffset dx="3" dy="3" input="SourceAlpha"/>
      <feGaussianBlur stdDeviation="3" result="blur"/>
      <feFlood flood-opacity="0.302"/>
      <feComposite operator="in" in2="blur"/>
      <feComposite in="SourceGraphic"/>
    </filter>
  </defs>
  <g id="_activeState.name_Hover_State_" data-name="{activeState.name} (Hover State)" transform="translate(9.669 10)">
    <g transform="matrix(1, 0, 0, 1, -9.67, -10)" filter="url(#Path_1667)">
      <g id="Path_1667-2" data-name="Path 1667" transform="translate(10 10)" fill="#a1b2c3">
        <path d="M 538 164 L 536 164 L 0 164 L -2 164 L -2 162 L -2 0 L -2 -2 L 0 -2 L 536 -2 L 538 -2 L 538 0 L 538 162 L 538 164 Z" stroke="none"/>
        <path d="M 0 0 L 0 162 L 536 162 L 536 0 L 0 0 M -4 -4 L 0 -4 L 536 -4 L 540 -4 L 540 0 L 540 162 L 540 166 L 536 166 L 0 166 L -4 166 L -4 162 L -4 0 L -4 -4 Z" stroke="none" fill="#3a4754"/>
      </g>
    </g>
    <path id="Path_51" data-name="Path 51" d="M-243.988-635.24H120.206l95.779,162H-243.988Z" transform="translate(243.988 635.24)" fill="#e9edf2"/>
    <text id="complete_the_purchase" data-name="complete 
the purchase" transform="translate(36.331 41)" fill="#3a4754" font-size="40" font-family="Helvetica-Bold, Helvetica" font-weight="700" letter-spacing="0.04em"><tspan x="0" y="31">COMPLETE </tspan><tspan x="0" y="79">THE PURCHASE</tspan></text>
    <circle id="Ellipse_14" data-name="Ellipse 14" cx="23" cy="23" r="23" transform="translate(452.575 73.24)" fill="#e9edf2"/>
    <path id="Path_45" data-name="Path 45" d="M-1485-6558.79c18.12,8.512,26.526,26.526,26.526,26.526s13.82-53.179,35.367-70.735" transform="translate(1932.575 6640.505)" fill="none" stroke="#3a4754" stroke-width="5"/>
  </g>
</svg>
