<svg xmlns="http://www.w3.org/2000/svg" xmlns:xlink="http://www.w3.org/1999/xlink" width="215.701" height="78.721" viewBox="0 0 215.701 78.721">
  <defs>
    <filter id="Path_5" x="0" y="0" width="215.701" height="78.721" filterUnits="userSpaceOnUse">
      <feOffset dx="3" dy="3" input="SourceAlpha"/>
      <feGaussianBlur stdDeviation="3" result="blur"/>
      <feFlood flood-opacity="0.29"/>
      <feComposite operator="in" in2="blur"/>
      <feComposite in="SourceGraphic"/>
    </filter>
  </defs>
  <g id="_activeState.name_Hover_State_" data-name="{activeState.name} (Hover State)" transform="translate(8 8)">
    <g id="Button" transform="translate(0)">
      <g transform="matrix(1, 0, 0, 1, -8, -8)" filter="url(#Path_5)">
        <g id="Path_5-2" data-name="Path 5" transform="translate(-8.05 643.24)" fill="#e9edf2">
          <path d="M 210.7514038085938 -577.51904296875 L 209.7514038085938 -577.51904296875 L 16.05001068115234 -577.51904296875 L 15.05001068115234 -577.51904296875 L 15.05001068115234 -578.51904296875 L 15.05001068115234 -635.239990234375 L 15.05001068115234 -636.239990234375 L 16.05001068115234 -636.239990234375 L 209.7514038085938 -636.239990234375 L 210.7514038085938 -636.239990234375 L 210.7514038085938 -635.239990234375 L 210.7514038085938 -578.51904296875 L 210.7514038085938 -577.51904296875 Z" stroke="none"/>
          <path d="M 209.7514190673828 -578.51904296875 L 209.7514190673828 -635.239990234375 L 16.05000114440918 -635.239990234375 L 16.05000114440918 -578.51904296875 L 209.7514190673828 -578.51904296875 M 211.7514190673828 -576.51904296875 L 209.7514190673828 -576.51904296875 L 16.05000114440918 -576.51904296875 L 14.05000019073486 -576.51904296875 L 14.05000019073486 -578.51904296875 L 14.05000019073486 -635.239990234375 L 14.05000019073486 -637.239990234375 L 16.05000114440918 -637.239990234375 L 209.7514190673828 -637.239990234375 L 211.7514190673828 -637.239990234375 L 211.7514190673828 -635.239990234375 L 211.7514190673828 -578.51904296875 L 211.7514190673828 -576.51904296875 Z" stroke="none" fill="#3a4754"/>
        </g>
      </g>
      <path id="Path_19" data-name="Path 19" d="M86.053-578.519H49.585L16.05-635.24h70Z" transform="translate(107.589 635.24)" fill="#ca5c43"/>
    </g>
    <text id="Man" transform="translate(70 35)" fill="#3a4754" font-size="20" font-family="Helvetica-Bold, Helvetica" font-weight="700"><tspan x="-22.773" y="0">MAN</tspan></text>
    <g id="Icon_ionic-ios-man" data-name="Icon ionic-ios-man" transform="translate(162 13)">
      <path id="Path_31" data-name="Path 31" d="M17.979,7.5h-.014a3.185,3.185,0,1,1,3.2-3.185A3.193,3.193,0,0,1,17.979,7.5Z" transform="translate(-9.984 -1.125)" fill="#e9edf2"/>
      <path id="Path_32" data-name="Path 32" d="M15.553,34.875a1.921,1.921,0,0,1-1.9-2.138l.07-19.519h-.7V20.6a1.706,1.706,0,0,1-.45,1.287,1.494,1.494,0,0,1-2.138,0,1.694,1.694,0,0,1-.45-1.287v-8.55a4.061,4.061,0,0,1,.97-2.7A3.591,3.591,0,0,1,13.7,8.086h8.6a3.574,3.574,0,0,1,2.742,1.273,4.043,4.043,0,0,1,.97,2.693V20.6a1.667,1.667,0,0,1-.464,1.287,1.58,1.58,0,0,1-2.18,0A1.667,1.667,0,0,1,22.9,20.6V13.219h-.633V32.737a1.948,1.948,0,1,1-3.881.042V22.852h-.844v9.907A2,2,0,0,1,15.553,34.875Z" transform="translate(-9.984 -1.125)" fill="#e9edf2"/>
    </g>
  </g>
</svg>
