<svg xmlns="http://www.w3.org/2000/svg" xmlns:xlink="http://www.w3.org/1999/xlink" width="215.701" height="78.721" viewBox="0 0 215.701 78.721">
  <defs>
    <filter id="Path_5" x="0" y="0" width="215.701" height="78.721" filterUnits="userSpaceOnUse">
      <feOffset dx="3" dy="3" input="SourceAlpha"/>
      <feGaussianBlur stdDeviation="3" result="blur"/>
      <feFlood flood-opacity="0.29"/>
      <feComposite operator="in" in2="blur"/>
      <feComposite in="SourceGraphic"/>
    </filter>
  </defs>
  <g id="_activeState.name_Hover_State_" data-name="{activeState.name} (Hover State)" transform="translate(8 8)">
    <g id="Button" transform="translate(0)">
      <g transform="matrix(1, 0, 0, 1, -8, -8)" filter="url(#Path_5)">
        <g id="Path_5-2" data-name="Path 5" transform="translate(-8.05 643.24)" fill="#e9edf2">
          <path d="M 210.7514038085938 -577.51904296875 L 209.7514038085938 -577.51904296875 L 16.05001068115234 -577.51904296875 L 15.05001068115234 -577.51904296875 L 15.05001068115234 -578.51904296875 L 15.05001068115234 -635.239990234375 L 15.05001068115234 -636.239990234375 L 16.05001068115234 -636.239990234375 L 209.7514038085938 -636.239990234375 L 210.7514038085938 -636.239990234375 L 210.7514038085938 -635.239990234375 L 210.7514038085938 -578.51904296875 L 210.7514038085938 -577.51904296875 Z" stroke="none"/>
          <path d="M 209.7514190673828 -578.51904296875 L 209.7514190673828 -635.239990234375 L 16.05000114440918 -635.239990234375 L 16.05000114440918 -578.51904296875 L 209.7514190673828 -578.51904296875 M 211.7514190673828 -576.51904296875 L 209.7514190673828 -576.51904296875 L 16.05000114440918 -576.51904296875 L 14.05000019073486 -576.51904296875 L 14.05000019073486 -578.51904296875 L 14.05000019073486 -635.239990234375 L 14.05000019073486 -637.239990234375 L 16.05000114440918 -637.239990234375 L 209.7514190673828 -637.239990234375 L 211.7514190673828 -637.239990234375 L 211.7514190673828 -635.239990234375 L 211.7514190673828 -578.51904296875 L 211.7514190673828 -576.51904296875 Z" stroke="none" fill="#3a4754"/>
        </g>
      </g>
      <path id="Path_19" data-name="Path 19" d="M86.053-578.519H49.585L16.05-635.24h70Z" transform="translate(107.589 635.24)" fill="#ca5c43"/>
    </g>
    <text id="woman" transform="translate(22.701 36)" fill="#3a4754" font-size="20" font-family="HelveticaNeue-Bold, Helvetica Neue" font-weight="700"><tspan x="0" y="0">WOMAN</tspan></text>
    <g id="Icon_ionic-ios-woman" data-name="Icon ionic-ios-woman" transform="translate(161 11)">
      <path id="Path_29" data-name="Path 29" d="M20.109,34.875a1.556,1.556,0,0,1-1.125-.464,1.8,1.8,0,0,1-.5-1.308v-8.4h-.977v8.4a1.768,1.768,0,0,1-.52,1.315,1.666,1.666,0,0,1-2.292,0,1.755,1.755,0,0,1-.52-1.315v-8.4H11.088l3.129-12h-.478l-1.716,6.356a1.6,1.6,0,0,1-1.5,1.252h0a1.5,1.5,0,0,1-1.2-.612,1.9,1.9,0,0,1-.253-1.68l2.039-7.32a3.844,3.844,0,0,1,3.424-2.763h6.919a4.011,4.011,0,0,1,3.41,2.735l.007.028,2.039,7.334a1.915,1.915,0,0,1-.274,1.688,1.506,1.506,0,0,1-1.188.6,1.6,1.6,0,0,1-1.5-1.273v-.014L22.24,12.712H21.7l3.2,12H21.727v8.4a1.8,1.8,0,0,1-.5,1.308A1.54,1.54,0,0,1,20.109,34.875Z" transform="translate(-8.983 -1.125)" fill="#e9edf2"/>
      <path id="Path_30" data-name="Path 30" d="M17.993,7.481A3.138,3.138,0,0,1,14.906,4.3a3.088,3.088,0,1,1,6.173,0A3.138,3.138,0,0,1,17.993,7.481Z" transform="translate(-8.983 -1.125)" fill="#e9edf2"/>
    </g>
  </g>
</svg>
