<svg xmlns="http://www.w3.org/2000/svg" xmlns:xlink="http://www.w3.org/1999/xlink" width="315.47" height="60.426" viewBox="0 0 315.47 60.426"><defs><filter id="a" x="0" y="0" width="315.47" height="60.426" filterUnits="userSpaceOnUse"><feOffset dx="3" dy="3" input="SourceAlpha"/><feGaussianBlur stdDeviation="3" result="b"/><feFlood flood-opacity="0.29"/><feComposite operator="in" in2="b"/><feComposite in="SourceGraphic"/></filter></defs><g transform="translate(6 6)"><g transform="matrix(1, 0, 0, 1, -6, -6)" filter="url(#a)"><path d="M16.05-592.814H313.52V-635.24H16.05Z" transform="translate(-10.05 641.24)" fill="#ca5c43"/></g><path d="M68.41-592.814H41.133L16.05-635.24H68.41Z" transform="translate(229.015 635.24)" fill="#3a4754"/><text transform="translate(91.253 25.968)" fill="#e9edf2" font-size="14" font-family="HelveticaNeue-Bold, Helvetica Neue" font-weight="700"><tspan x="0" y="0">SIGN UP</tspan></text><path d="M19.156,6H4.8A1.793,1.793,0,0,0,3.009,7.8L3,18.566a1.8,1.8,0,0,0,1.8,1.8H19.156a1.8,1.8,0,0,0,1.8-1.8V7.8A1.8,1.8,0,0,0,19.156,6Zm0,3.59-7.181,4.488L4.8,9.59V7.8l7.181,4.488L19.156,7.8Z" transform="translate(266.795 6.566)" fill="#e9edf2"/></g></svg>