<svg xmlns="http://www.w3.org/2000/svg" xmlns:xlink="http://www.w3.org/1999/xlink" width="109.868" height="56.771" viewBox="0 0 109.868 56.771"><defs><filter id="a" x="0" y="0" width="109.868" height="56.771" filterUnits="userSpaceOnUse"><feOffset dx="3" dy="3" input="SourceAlpha"/><feGaussianBlur stdDeviation="3" result="b"/><feFlood flood-opacity="0.29"/><feComposite operator="in" in2="b"/><feComposite in="SourceGraphic"/></filter></defs><g transform="translate(6 6)"><g transform="matrix(1, 0, 0, 1, -6, -6)" filter="url(#a)"><path d="M16.05-596.469h91.868V-635.24H16.05Z" transform="translate(-10.05 641.24)" fill="#a1b2c3"/></g><path d="M63.9-596.469H38.972L16.05-635.24H63.9Z" transform="translate(27.913 635.24)" fill="#3a4754"/><text transform="translate(14.071 13.107)" fill="#e9edf2" font-size="15" font-family="Helvetica-Bold, Helvetica" font-weight="700"><tspan x="0" y="12">BUY</tspan></text><g transform="translate(64.222 10.366)"><path d="M12.7,29.7a1.571,1.571,0,1,1-1.571-1.571A1.571,1.571,0,0,1,12.7,29.7Z" transform="translate(-5.707 -13.463)" fill="#e9edf2"/><path d="M28.489,29.7a1.571,1.571,0,1,1-1.571-1.571A1.571,1.571,0,0,1,28.489,29.7Z" transform="translate(-12.844 -13.463)" fill="#e9edf2"/><path d="M22.65,7.4a.269.269,0,0,0-.241-.179l-15.1-1.34a.471.471,0,0,1-.348-.2A4.313,4.313,0,0,0,6.4,4.888c-.357-.4-1.029-.387-2.262-.4-.417,0-.756.221-.756.6a.643.643,0,0,0,.723.6,6.7,6.7,0,0,1,1.205.081c.218.06.394.387.459.672a.015.015,0,0,0,0,.013c.009.051.093.434.093.438l1.854,9a3.165,3.165,0,0,0,.672,1.518,1.912,1.912,0,0,0,1.525.689H20.884a.638.638,0,0,0,.667-.57.618.618,0,0,0-.649-.621H9.908a.572.572,0,0,1-.385-.119,1.85,1.85,0,0,1-.533-1.106l-.2-1.008a.023.023,0,0,1,.019-.026l12.871-2a.259.259,0,0,0,.227-.221l.742-4.924A.223.223,0,0,0,22.65,7.4Z" transform="translate(-3.382 -4.493)" fill="#e9edf2"/></g></g></svg>