<svg xmlns="http://www.w3.org/2000/svg" xmlns:xlink="http://www.w3.org/1999/xlink" width="419.701" height="78.721" viewBox="0 0 419.701 78.721"><defs><filter id="a" x="0" y="0" width="419.701" height="78.721" filterUnits="userSpaceOnUse"><feOffset dx="3" dy="3" input="SourceAlpha"/><feGaussianBlur stdDeviation="3" result="b"/><feFlood flood-opacity="0.29"/><feComposite operator="in" in2="b"/><feComposite in="SourceGraphic"/></filter></defs><g transform="translate(8 8)"><g transform="matrix(1, 0, 0, 1, -8, -8)" filter="url(#a)"><g transform="translate(-8.05 643.24)" fill="#e9edf2"><path d="M 414.7514038085938 -577.51904296875 L 413.7514038085938 -577.51904296875 L 16.04999542236328 -577.51904296875 L 15.04999542236328 -577.51904296875 L 15.04999542236328 -578.51904296875 L 15.04999542236328 -635.239990234375 L 15.04999542236328 -636.239990234375 L 16.04999542236328 -636.239990234375 L 413.7514038085938 -636.239990234375 L 414.7514038085938 -636.239990234375 L 414.7514038085938 -635.239990234375 L 414.7514038085938 -578.51904296875 L 414.7514038085938 -577.51904296875 Z" stroke="none"/><path d="M 413.7514038085938 -578.51904296875 L 413.7514038085938 -635.239990234375 L 16.04999542236328 -635.239990234375 L 16.04999542236328 -578.51904296875 L 413.7514038085938 -578.51904296875 M 415.7514038085938 -576.51904296875 L 413.7514038085938 -576.51904296875 L 16.04999542236328 -576.51904296875 L 14.04999542236328 -576.51904296875 L 14.04999542236328 -578.51904296875 L 14.04999542236328 -635.239990234375 L 14.04999542236328 -637.239990234375 L 16.04999542236328 -637.239990234375 L 413.7514038085938 -637.239990234375 L 415.7514038085938 -637.239990234375 L 415.7514038085938 -635.239990234375 L 415.7514038085938 -578.51904296875 L 415.7514038085938 -576.51904296875 Z" stroke="none" fill="#3a4754"/></g></g><path d="M86.053-578.519H49.585L16.05-635.24h70Z" transform="translate(311.589 635.24)" fill="#3a4754"/><text transform="translate(122 36)" fill="#3a4754" font-size="20" font-family="HelveticaNeue-Bold, Helvetica Neue" font-weight="700"><tspan x="0" y="0">SIGN UP</tspan></text><path d="M24.6,6H5.4A2.4,2.4,0,0,0,3.012,8.4L3,22.8a2.407,2.407,0,0,0,2.4,2.4H24.6A2.407,2.407,0,0,0,27,22.8V8.4A2.407,2.407,0,0,0,24.6,6Zm0,4.8-9.6,6-9.6-6V8.4l9.6,6,9.6-6Z" transform="translate(357.701 10.8)" fill="#e9edf2"/></g></svg>