<svg xmlns="http://www.w3.org/2000/svg" xmlns:xlink="http://www.w3.org/1999/xlink" width="157.701" height="76.721" viewBox="0 0 157.701 76.721"><defs><filter id="a" x="0" y="0" width="157.701" height="76.721" filterUnits="userSpaceOnUse"><feOffset dx="3" dy="3" input="SourceAlpha"/><feGaussianBlur stdDeviation="3" result="b"/><feFlood flood-opacity="0.29"/><feComposite operator="in" in2="b"/><feComposite in="SourceGraphic"/></filter></defs><g transform="translate(7 7)"><g transform="matrix(1, 0, 0, 1, -7, -7)" filter="url(#a)"><g transform="translate(-9.05 642.24)" fill="#e9edf2"><path d="M 154.2514190673828 -578.01904296875 L 153.7514190673828 -578.01904296875 L 16.05000114440918 -578.01904296875 L 15.5500020980835 -578.01904296875 L 15.5500020980835 -578.51904296875 L 15.5500020980835 -635.239990234375 L 15.5500020980835 -635.739990234375 L 16.05000114440918 -635.739990234375 L 153.7514190673828 -635.739990234375 L 154.2514190673828 -635.739990234375 L 154.2514190673828 -635.239990234375 L 154.2514190673828 -578.51904296875 L 154.2514190673828 -578.01904296875 Z" stroke="none"/><path d="M 153.7514190673828 -578.51904296875 L 153.7514190673828 -635.239990234375 L 16.05000114440918 -635.239990234375 L 16.05000114440918 -578.51904296875 L 153.7514190673828 -578.51904296875 M 154.7514190673828 -577.51904296875 L 153.7514190673828 -577.51904296875 L 16.05000114440918 -577.51904296875 L 15.0500020980835 -577.51904296875 L 15.0500020980835 -578.51904296875 L 15.0500020980835 -635.239990234375 L 15.0500020980835 -636.239990234375 L 16.05000114440918 -636.239990234375 L 153.7514190673828 -636.239990234375 L 154.7514190673828 -636.239990234375 L 154.7514190673828 -635.239990234375 L 154.7514190673828 -578.51904296875 L 154.7514190673828 -577.51904296875 Z" stroke="none" fill="#3a4754"/></g></g><g transform="translate(51.589 635.24)" fill="#3a4754"><path d="M 86.55274200439453 -578.01904296875 L 86.05274200439453 -578.01904296875 L 49.58487701416016 -578.01904296875 L 49.29963684082031 -578.01904296875 L 49.15447998046875 -578.2645874023438 L 15.61959838867188 -634.9855346679688 L 15.17353916168213 -635.739990234375 L 16.04999923706055 -635.739990234375 L 86.05274200439453 -635.739990234375 L 86.55274200439453 -635.739990234375 L 86.55274200439453 -635.239990234375 L 86.55274200439453 -578.51904296875 L 86.55274200439453 -578.01904296875 Z" stroke="none"/><path d="M 86.05274200439453 -578.51904296875 L 86.05274200439453 -635.239990234375 L 16.04999923706055 -635.239990234375 L 49.58487701416016 -578.51904296875 L 86.05274200439453 -578.51904296875 M 87.05274200439453 -577.51904296875 L 86.05274200439453 -577.51904296875 L 49.58487701416016 -577.51904296875 L 49.01440811157227 -577.51904296875 L 48.72406768798828 -578.0101318359375 L 15.18918895721436 -634.7310791015625 L 14.29706859588623 -636.239990234375 L 16.04999923706055 -636.239990234375 L 86.05274200439453 -636.239990234375 L 87.05274200439453 -636.239990234375 L 87.05274200439453 -635.239990234375 L 87.05274200439453 -578.51904296875 L 87.05274200439453 -577.51904296875 Z" stroke="none" fill="#3a4754"/></g><text transform="translate(20 18)" fill="#3a4754" font-size="20" font-family="Helvetica-Bold, Helvetica" font-weight="700"><tspan x="0" y="15">BUY</tspan></text><g transform="translate(91.618 11.507)"><path d="M12.938,29.813a1.688,1.688,0,1,1-1.687-1.688,1.688,1.688,0,0,1,1.688,1.688Z" fill="#e9edf2"/><path d="M28.723,29.813a1.687,1.687,0,1,1-1.687-1.688,1.687,1.687,0,0,1,1.687,1.688Z" fill="#e9edf2"/><path d="M32.611,9.3a.413.413,0,0,0-.366-.3L9.345,6.785a.7.7,0,0,1-.527-.33,7.16,7.16,0,0,0-.858-1.308c-.541-.661-1.561-.64-3.431-.654a1.024,1.024,0,0,0-1.146.991,1,1,0,0,0,1.1.991,9.342,9.342,0,0,1,1.828.134c.33.1.6.64.7,1.111a.026.026,0,0,0,.007.021c.014.084.141.717.141.724L9.963,23.344a5.468,5.468,0,0,0,1.02,2.51A2.806,2.806,0,0,0,13.3,26.993H29.932a1,1,0,0,0,1.013-.942.98.98,0,0,0-.984-1.027H13.282a.817.817,0,0,1-.584-.2A3.155,3.155,0,0,1,11.89,23l-.3-1.666a.039.039,0,0,1,.028-.042l19.526-3.3a.411.411,0,0,0,.345-.366l1.125-8.142A.4.4,0,0,0,32.611,9.3Z" fill="#e9edf2"/></g></g></svg>