<svg xmlns="http://www.w3.org/2000/svg" width="38.239" height="35.007" viewBox="0 0 38.239 35.007"><path d="M12.938,29.813a1.688,1.688,0,1,1-1.687-1.688,1.688,1.688,0,0,1,1.688,1.688Z" transform="translate(-1.231 3.507)" fill="#ca5c43"/><path d="M28.723,29.813a1.687,1.687,0,1,1-1.687-1.688,1.687,1.687,0,0,1,1.687,1.688Z" transform="translate(5.618 3.507)" fill="#ca5c43"/><path d="M41.608,11a.545.545,0,0,0-.478-.4l-29.95-3a.919.919,0,0,1-.69-.448A9.748,9.748,0,0,0,9.368,5.379c-.708-.9-2.041-.867-4.487-.886a1.357,1.357,0,0,0-1.5,1.344A1.334,1.334,0,0,0,4.817,7.181a11.8,11.8,0,0,1,2.391.181c.432.133.782.867.91,1.506a.036.036,0,0,0,.009.029c.018.114.184.972.184.982l3.678,20.168a7.561,7.561,0,0,0,1.333,3.4,3.626,3.626,0,0,0,3.025,1.544H38.1a1.328,1.328,0,0,0,1.324-1.277,1.308,1.308,0,0,0-1.287-1.392H16.329a1.043,1.043,0,0,1-.763-.267,4.342,4.342,0,0,1-1.057-2.478l-.4-2.259a.052.052,0,0,1,.037-.057l25.536-4.48a.549.549,0,0,0,.451-.5l1.471-11.037A.563.563,0,0,0,41.608,11Z" transform="translate(-3.382 -4.493)" fill="#ca5c43"/></svg>